<svg width="28" height="28" viewBox="0 0 28 28" fill="none" xmlns="http://www.w3.org/2000/svg">
<g filter="url(#filter0_d_1_235)">
<path d="M23.0035 6.81175C22.9192 6.6899 22.8066 6.59031 22.6754 6.5215C22.5441 6.45269 22.3982 6.41672 22.25 6.41667H9.72193L8.66409 3.8775C8.52539 3.54312 8.29052 3.25746 7.98927 3.05673C7.68801 2.856 7.33393 2.74925 6.97193 2.75H4.83334V4.58334H6.97193L11.3206 15.0196C11.3902 15.1866 11.5078 15.3292 11.6583 15.4295C11.8089 15.5298 11.9858 15.5834 12.1667 15.5833H19.5C19.8823 15.5833 20.2242 15.3459 20.3589 14.9893L23.1089 7.656C23.1609 7.51724 23.1785 7.36794 23.1601 7.22091C23.1417 7.07387 23.088 6.93348 23.0035 6.81175V6.81175ZM18.8648 13.75H12.7781L10.4864 8.25H20.9273L18.8648 13.75Z" fill="white"/>
<path d="M12.625 19.25C13.3844 19.25 14 18.6344 14 17.875C14 17.1156 13.3844 16.5 12.625 16.5C11.8656 16.5 11.25 17.1156 11.25 17.875C11.25 18.6344 11.8656 19.25 12.625 19.25Z" fill="white"/>
<path d="M19.0417 19.25C19.801 19.25 20.4167 18.6344 20.4167 17.875C20.4167 17.1156 19.801 16.5 19.0417 16.5C18.2823 16.5 17.6667 17.1156 17.6667 17.875C17.6667 18.6344 18.2823 19.25 19.0417 19.25Z" fill="white"/>
</g>
<defs>
<filter id="filter0_d_1_235" x="-1" y="0" width="30" height="30" filterUnits="userSpaceOnUse" color-interpolation-filters="sRGB">
<feFlood flood-opacity="0" result="BackgroundImageFix"/>
<feColorMatrix in="SourceAlpha" type="matrix" values="0 0 0 0 0 0 0 0 0 0 0 0 0 0 0 0 0 0 127 0" result="hardAlpha"/>
<feOffset dy="4"/>
<feGaussianBlur stdDeviation="2"/>
<feComposite in2="hardAlpha" operator="out"/>
<feColorMatrix type="matrix" values="0 0 0 0 0 0 0 0 0 0 0 0 0 0 0 0 0 0 0.25 0"/>
<feBlend mode="normal" in2="BackgroundImageFix" result="effect1_dropShadow_1_235"/>
<feBlend mode="normal" in="SourceGraphic" in2="effect1_dropShadow_1_235" result="shape"/>
</filter>
</defs>
</svg>
